<svg id="Layer_1" data-name="Layer 1" xmlns="http://www.w3.org/2000/svg" viewBox="0 0 600 400"><defs><style>.cls-1{fill:#1b97e2;}.cls-2{fill:#eee;}.cls-3{fill:#5b9eb2;}.cls-4{fill:#f5f5f5;}.cls-5,.cls-6{fill:#115a77;}.cls-6,.cls-7{stroke:#eee;stroke-miterlimit:10;}.cls-7{fill:none;}.cls-8{fill:#fff;}</style></defs><title>MemoryManager</title><polyline class="cls-1" points="363.5 229.5 262.5 229.5 262.5 166.5 363.5 166.5 363.5 229.5"/><polyline class="cls-2" points="363.5 229.5 363.5 229 263 229 263 167 363 167 363 229.5 363.5 229.5 363.5 229 363.5 229.5 364 229.5 364 166 262 166 262 230 364 230 364 229.5 363.5 229.5"/><polyline class="cls-1" points="354.5 220.5 253.5 220.5 253.5 157.5 354.5 157.5 354.5 220.5"/><polyline class="cls-2" points="354.5 220.5 354.5 220 254 220 254 158 354 158 354 220.5 354.5 220.5 354.5 220 354.5 220.5 355 220.5 355 157 253 157 253 221 355 221 355 220.5 354.5 220.5"/><polyline class="cls-3" points="363 167 355 167 355 220.5 355 221 263 221 263 229 363 229 363 167"/><path class="cls-4" d="M363.5,229.5h0v0h0M364,166h-9v1h8v62H263v-8h-1v9H364V166"/><polyline class="cls-3" points="354 158 254 158 254 220 354 220 354 158"/><path class="cls-4" d="M354.5,220.5h0v0h0M254,220V158H354v62H254m101-63H253v64H355V157"/><rect class="cls-5" x="245.5" y="148.5" width="101" height="63"/><polygon class="cls-2" points="346.5 211.5 346.5 211 246 211 246 149 346 149 346 211.5 346.5 211.5 346.5 211 346.5 211.5 347 211.5 347 148 245 148 245 212 347 212 347 211.5 346.5 211.5"/><path class="cls-2" d="M266.47,185v-8.08h1.14L270.2,181a22.21,22.21,0,0,1,1.45,2.62h0c-.09-1.08-.12-2.06-.12-3.32v-3.38h1V185h-1.06l-2.56-4.1a24.7,24.7,0,0,1-1.52-2.7h0c.06,1,.08,2,.08,3.34V185Z"/><path class="cls-2" d="M279.18,183.42c0,.6,0,1.12.05,1.58h-.93l-.06-.95h0a2.16,2.16,0,0,1-1.92,1.08c-.91,0-2-.5-2-2.54V179.2h1.06v3.21c0,1.1.33,1.85,1.29,1.85a1.53,1.53,0,0,0,1.39-1,1.57,1.57,0,0,0,.1-.54V179.2h1.05Z"/><path class="cls-2" d="M280.94,180.77c0-.6,0-1.1-.05-1.57h.93l0,.93h0a2,2,0,0,1,1.82-1.07,1.73,1.73,0,0,1,1.65,1.17h0a2.35,2.35,0,0,1,.65-.76,2,2,0,0,1,1.28-.41c.77,0,1.91.51,1.91,2.52V185h-1v-3.29c0-1.11-.41-1.78-1.26-1.78a1.36,1.36,0,0,0-1.25,1,1.62,1.62,0,0,0-.08.52V185h-1v-3.48c0-.92-.4-1.59-1.21-1.59a1.42,1.42,0,0,0-1.3,1,1.5,1.5,0,0,0-.09.52V185h-1Z"/><path class="cls-2" d="M294.16,185l-.08-.73h0a2.17,2.17,0,0,1-1.77.86,1.66,1.66,0,0,1-1.78-1.67c0-1.4,1.25-2.17,3.49-2.15v-.12a1.2,1.2,0,0,0-1.32-1.35,2.93,2.93,0,0,0-1.51.43l-.24-.69a3.64,3.64,0,0,1,1.91-.52c1.77,0,2.21,1.21,2.21,2.38v2.17a8.47,8.47,0,0,0,.09,1.39Zm-.15-3c-1.16,0-2.46.18-2.46,1.3a.93.93,0,0,0,1,1,1.45,1.45,0,0,0,1.41-1A1.35,1.35,0,0,0,294,183Z"/><path class="cls-2" d="M302.49,185l-.08-.73h0a2.18,2.18,0,0,1-1.78.86,1.65,1.65,0,0,1-1.77-1.67c0-1.4,1.25-2.17,3.49-2.15v-.12a1.2,1.2,0,0,0-1.32-1.35,2.93,2.93,0,0,0-1.51.43l-.24-.69a3.64,3.64,0,0,1,1.91-.52c1.77,0,2.2,1.21,2.2,2.38v2.17a8.4,8.4,0,0,0,.1,1.39Zm-.16-3c-1.15,0-2.45.18-2.45,1.3a.93.93,0,0,0,1,1,1.43,1.43,0,0,0,1.4-1,1,1,0,0,0,.06-.34Z"/><path class="cls-2" d="M305.06,181c0-.69,0-1.28-.05-1.81h.93l0,1.13h0a1.75,1.75,0,0,1,1.61-1.27,1.36,1.36,0,0,1,.3,0v1a1.94,1.94,0,0,0-.36,0,1.47,1.47,0,0,0-1.42,1.35,3.68,3.68,0,0,0,0,.5V185h-1Z"/><path class="cls-2" d="M309.46,182.29a1.86,1.86,0,0,0,2,2,3.76,3.76,0,0,0,1.61-.3l.18.76a4.67,4.67,0,0,1-1.93.36,2.69,2.69,0,0,1-2.85-2.93c0-1.75,1-3.13,2.72-3.13a2.47,2.47,0,0,1,2.4,2.74,4.35,4.35,0,0,1,0,.49Zm3.1-.76a1.5,1.5,0,0,0-1.47-1.71,1.74,1.74,0,0,0-1.61,1.71Z"/><path class="cls-2" d="M314.89,180.77c0-.6,0-1.1-.05-1.57h.93l.06,1h0a2.14,2.14,0,0,1,1.92-1.09c.8,0,2.05.48,2.05,2.47V185h-1.06v-3.35c0-.93-.34-1.71-1.34-1.71A1.5,1.5,0,0,0,316,181a1.75,1.75,0,0,0-.07.49V185h-1.05Z"/><path class="cls-2" d="M324.76,185l-.08-.73h0a2.17,2.17,0,0,1-1.77.86,1.66,1.66,0,0,1-1.78-1.67c0-1.4,1.25-2.17,3.49-2.15v-.12a1.2,1.2,0,0,0-1.32-1.35,2.93,2.93,0,0,0-1.51.43l-.24-.69a3.64,3.64,0,0,1,1.91-.52c1.77,0,2.2,1.21,2.2,2.38v2.17a8.4,8.4,0,0,0,.1,1.39Zm-.15-3c-1.16,0-2.46.18-2.46,1.3a.93.93,0,0,0,1,1,1.45,1.45,0,0,0,1.41-1,1.35,1.35,0,0,0,.06-.34Z"/><rect class="cls-6" x="245.5" y="53.5" width="101" height="63"/><path class="cls-2" d="M267.53,86c-.06-1.13-.14-2.48-.12-3.49h0c-.28,1-.61,2-1,3.07l-1.43,3.92h-.79l-1.3-3.85c-.39-1.14-.71-2.18-.94-3.14h0c0,1-.09,2.36-.16,3.57l-.22,3.47h-1l.56-8.08h1.33l1.38,3.91c.34,1,.61,1.88.82,2.72h0c.21-.82.5-1.7.86-2.72l1.44-3.91h1.33l.5,8.08h-1Z"/><path class="cls-2" d="M273.61,89.5l-.08-.73h0a2.17,2.17,0,0,1-1.77.86A1.66,1.66,0,0,1,269.94,88c0-1.4,1.25-2.17,3.49-2.15v-.12a1.2,1.2,0,0,0-1.32-1.35,2.93,2.93,0,0,0-1.51.43l-.24-.69a3.64,3.64,0,0,1,1.91-.52c1.77,0,2.21,1.21,2.21,2.38v2.17a8.47,8.47,0,0,0,.09,1.39Zm-.15-3c-1.16,0-2.46.18-2.46,1.3a.93.93,0,0,0,1,1,1.45,1.45,0,0,0,1.41-1,1.35,1.35,0,0,0,.06-.34Z"/><path class="cls-2" d="M277.36,82.06a.66.66,0,0,1-1.31,0,.65.65,0,0,1,.66-.66A.63.63,0,0,1,277.36,82.06Zm-1.18,7.44V83.7h1.06v5.8Z"/><path class="cls-2" d="M279,85.27c0-.6,0-1.1-.05-1.57h.94l.06,1h0a2.14,2.14,0,0,1,1.92-1.09c.8,0,2.05.48,2.05,2.47V89.5h-1.05V86.15c0-.93-.35-1.71-1.35-1.71a1.5,1.5,0,0,0-1.41,1.08,1.45,1.45,0,0,0-.07.49V89.5H279Z"/><path class="cls-2" d="M288.19,85.27c0-.6,0-1.1,0-1.57h.92l.05.93h0A2,2,0,0,1,291,83.56a1.71,1.71,0,0,1,1.64,1.17h0a2.35,2.35,0,0,1,.65-.76,2,2,0,0,1,1.28-.41c.77,0,1.91.51,1.91,2.52V89.5h-1V86.21c0-1.11-.41-1.78-1.26-1.78a1.36,1.36,0,0,0-1.25,1,2,2,0,0,0-.08.52V89.5h-1V86c0-.92-.41-1.59-1.21-1.59a1.44,1.44,0,0,0-1.31,1,1.49,1.49,0,0,0-.08.52v3.5h-1Z"/><path class="cls-2" d="M301.42,89.5l-.09-.73h0a2.19,2.19,0,0,1-1.78.86A1.65,1.65,0,0,1,297.75,88c0-1.4,1.24-2.17,3.49-2.15v-.12a1.21,1.21,0,0,0-1.32-1.35,2.9,2.9,0,0,0-1.51.43l-.24-.69a3.6,3.6,0,0,1,1.9-.52c1.78,0,2.21,1.21,2.21,2.38v2.17a7.44,7.44,0,0,0,.1,1.39Zm-.16-3c-1.15,0-2.46.18-2.46,1.3a.94.94,0,0,0,1,1,1.45,1.45,0,0,0,1.4-1,1,1,0,0,0,.06-.34Z"/><path class="cls-2" d="M304,85.27c0-.6,0-1.1-.05-1.57h.93l.06,1h0a2.14,2.14,0,0,1,1.92-1.09c.8,0,2.05.48,2.05,2.47V89.5h-1.06V86.15c0-.93-.35-1.71-1.34-1.71a1.5,1.5,0,0,0-1.42,1.08A1.75,1.75,0,0,0,305,86V89.5H304Z"/><path class="cls-2" d="M313.86,89.5l-.08-.73h0a2.18,2.18,0,0,1-1.78.86A1.65,1.65,0,0,1,310.19,88c0-1.4,1.25-2.17,3.49-2.15v-.12a1.2,1.2,0,0,0-1.32-1.35,2.93,2.93,0,0,0-1.51.43l-.24-.69a3.64,3.64,0,0,1,1.91-.52c1.77,0,2.2,1.21,2.2,2.38v2.17a8.4,8.4,0,0,0,.1,1.39Zm-.16-3c-1.15,0-2.45.18-2.45,1.3a.93.93,0,0,0,1,1,1.43,1.43,0,0,0,1.4-1,1,1,0,0,0,.06-.34Z"/><path class="cls-2" d="M321.43,83.7c0,.41-.05.88-.05,1.59v3.37a3.31,3.31,0,0,1-.83,2.65,3,3,0,0,1-2.11.7,3.78,3.78,0,0,1-1.93-.48l.27-.81a3.25,3.25,0,0,0,1.7.46c1.08,0,1.87-.56,1.87-2V88.5h0a2.09,2.09,0,0,1-1.85,1A2.6,2.6,0,0,1,316,86.65a2.79,2.79,0,0,1,2.61-3.09,2,2,0,0,1,1.82,1h0l.05-.87ZM320.34,86a1.44,1.44,0,0,0-.06-.48,1.52,1.52,0,0,0-1.48-1.12c-1,0-1.72.85-1.72,2.2,0,1.14.57,2.08,1.71,2.08a1.53,1.53,0,0,0,1.46-1.08,1.82,1.82,0,0,0,.09-.56Z"/><path class="cls-2" d="M323.72,86.79a1.86,1.86,0,0,0,2,2,3.75,3.75,0,0,0,1.6-.3l.18.76a4.63,4.63,0,0,1-1.93.36,2.7,2.7,0,0,1-2.85-2.93c0-1.75,1-3.13,2.72-3.13a2.47,2.47,0,0,1,2.4,2.74,4.35,4.35,0,0,1,0,.49Zm3.1-.76a1.5,1.5,0,0,0-1.46-1.71A1.74,1.74,0,0,0,323.74,86Z"/><path class="cls-2" d="M329.15,85.51c0-.69,0-1.28,0-1.81H330l0,1.13h.05a1.75,1.75,0,0,1,1.61-1.27,1.36,1.36,0,0,1,.3,0v1a1.94,1.94,0,0,0-.36,0,1.47,1.47,0,0,0-1.42,1.35,3.68,3.68,0,0,0-.05.5V89.5h-1Z"/><rect class="cls-6" x="128.5" y="261.5" width="101" height="63"/><path class="cls-2" d="M135.91,274.92h4.36v.87H137v2.69H140v.86H137V283h-1.05Z"/><path class="cls-2" d="M144.4,283l-.09-.73h0a2.19,2.19,0,0,1-1.78.86,1.65,1.65,0,0,1-1.77-1.67c0-1.4,1.24-2.17,3.49-2.15v-.12a1.21,1.21,0,0,0-1.32-1.35,2.9,2.9,0,0,0-1.51.43l-.24-.69a3.6,3.6,0,0,1,1.9-.52c1.78,0,2.21,1.21,2.21,2.38v2.17a7.44,7.44,0,0,0,.1,1.39Zm-.16-3c-1.15,0-2.46.18-2.46,1.3a.94.94,0,0,0,1,1,1.45,1.45,0,0,0,1.4-1,1,1,0,0,0,.06-.34Z"/><path class="cls-2" d="M147,274.48H148V283H147Z"/><path class="cls-2" d="M149.8,274.48h1V283h-1Z"/><path class="cls-2" d="M152.58,283c0-.4,0-1,0-1.5v-7h1v3.65h0a2.15,2.15,0,0,1,2-1.07c1.44,0,2.45,1.2,2.44,3,0,2.07-1.3,3.1-2.6,3.1a2.06,2.06,0,0,1-1.94-1.09h0l0,1Zm1.09-2.33a2.44,2.44,0,0,0,.05.39,1.63,1.63,0,0,0,1.58,1.23c1.11,0,1.77-.9,1.77-2.23,0-1.16-.6-2.16-1.73-2.16a1.69,1.69,0,0,0-1.61,1.3,2.34,2.34,0,0,0-.06.43Z"/><path class="cls-2" d="M162.67,283l-.08-.73h0a2.17,2.17,0,0,1-1.77.86,1.66,1.66,0,0,1-1.78-1.67c0-1.4,1.25-2.17,3.49-2.15v-.12a1.2,1.2,0,0,0-1.32-1.35,2.93,2.93,0,0,0-1.51.43l-.24-.69a3.64,3.64,0,0,1,1.91-.52c1.77,0,2.21,1.21,2.21,2.38v2.17a8.47,8.47,0,0,0,.09,1.39Zm-.15-3c-1.16,0-2.46.18-2.46,1.3a.93.93,0,0,0,1,1,1.45,1.45,0,0,0,1.41-1,1.35,1.35,0,0,0,.06-.34Z"/><path class="cls-2" d="M169.38,282.78a3.81,3.81,0,0,1-1.67.34,2.76,2.76,0,0,1-2.89-3,3,3,0,0,1,3.12-3.08,3.4,3.4,0,0,1,1.46.3l-.24.81a2.47,2.47,0,0,0-1.22-.27,2.19,2.19,0,0,0,0,4.36,3,3,0,0,0,1.3-.29Z"/><path class="cls-2" d="M171.66,279.86h0a7.77,7.77,0,0,1,.51-.66l1.7-2h1.28l-2.25,2.38,2.56,3.42H174.2l-2-2.78-.54.6V283h-1v-8.52h1Z"/><path class="cls-2" d="M180.13,280.46l-.84,2.54h-1.08l2.75-8.08h1.26L185,283h-1.12l-.86-2.54Zm2.65-.82-.79-2.33c-.18-.52-.3-1-.42-1.47h0c-.12.48-.25,1-.41,1.46l-.79,2.34Z"/><path class="cls-2" d="M186.1,274.48h1.05V283H186.1Z"/><path class="cls-2" d="M188.93,274.48h1V283h-1Z"/><path class="cls-2" d="M197,280.05a2.83,2.83,0,0,1-2.89,3.08,2.76,2.76,0,0,1-2.78-3,2.84,2.84,0,0,1,2.88-3.09A2.74,2.74,0,0,1,197,280.05Zm-4.6.06c0,1.27.73,2.23,1.76,2.23s1.77-.95,1.77-2.25c0-1-.5-2.23-1.74-2.23S192.41,279,192.41,280.11Z"/><path class="cls-2" d="M202.49,282.78a3.81,3.81,0,0,1-1.67.34,2.76,2.76,0,0,1-2.89-3,2.94,2.94,0,0,1,3.12-3.08,3.44,3.44,0,0,1,1.46.3l-.24.81a2.5,2.5,0,0,0-1.22-.27,2.19,2.19,0,0,0,0,4.36,3,3,0,0,0,1.3-.29Z"/><path class="cls-2" d="M206.94,283l-.08-.73h0a2.18,2.18,0,0,1-1.78.86,1.65,1.65,0,0,1-1.77-1.67c0-1.4,1.25-2.17,3.49-2.15v-.12a1.2,1.2,0,0,0-1.32-1.35,2.93,2.93,0,0,0-1.51.43l-.24-.69a3.61,3.61,0,0,1,1.91-.52c1.77,0,2.2,1.21,2.2,2.38v2.17a8.4,8.4,0,0,0,.1,1.39Zm-.16-3c-1.15,0-2.46.18-2.46,1.3a.94.94,0,0,0,1,1,1.43,1.43,0,0,0,1.4-1,1,1,0,0,0,.06-.34Z"/><path class="cls-2" d="M210.73,275.53v1.67h1.51v.8h-1.51v3.13c0,.72.21,1.13.79,1.13a2.22,2.22,0,0,0,.62-.08l0,.8a2.63,2.63,0,0,1-.93.14,1.49,1.49,0,0,1-1.14-.44,2.17,2.17,0,0,1-.41-1.51V278h-.9v-.8h.9v-1.4Z"/><path class="cls-2" d="M218.61,280.05a2.83,2.83,0,0,1-2.89,3.08,2.76,2.76,0,0,1-2.78-3,2.84,2.84,0,0,1,2.88-3.09A2.74,2.74,0,0,1,218.61,280.05Zm-4.6.06c0,1.27.73,2.23,1.76,2.23s1.76-.95,1.76-2.25c0-1-.49-2.23-1.73-2.23S214,279,214,280.11Z"/><path class="cls-2" d="M220,279c0-.69,0-1.28,0-1.81h.92l0,1.13h0a1.74,1.74,0,0,1,1.61-1.27,1.36,1.36,0,0,1,.3,0v1a1.94,1.94,0,0,0-.36,0,1.47,1.47,0,0,0-1.42,1.35,3.68,3.68,0,0,0,0,.5V283h-1Z"/><path class="cls-2" d="M162.1,289.08a7.85,7.85,0,0,0-1.51,4.9,8.08,8.08,0,0,0,1.51,4.87h-.83A7.71,7.71,0,0,1,159.7,294a7.85,7.85,0,0,1,1.57-4.9Z"/><path class="cls-2" d="M165.62,297.4,163,289.32h1.12l1.26,4c.35,1.09.65,2.07.87,3h0c.23-.94.56-1.95.92-3l1.37-4h1.12l-2.89,8.08Z"/><path class="cls-2" d="M171.49,290a.65.65,0,1,1-1.3,0,.64.64,0,0,1,.66-.66A.62.62,0,0,1,171.49,290Zm-1.17,7.44v-5.8h1.05v5.8Z"/><path class="cls-2" d="M173.13,293.41c0-.69,0-1.28,0-1.81H174l0,1.13h0a1.76,1.76,0,0,1,1.61-1.27.91.91,0,0,1,.3,0v1a1.86,1.86,0,0,0-.36,0,1.47,1.47,0,0,0-1.41,1.35,2.49,2.49,0,0,0-.05.5v3.09h-1Z"/><path class="cls-2" d="M178.61,289.93v1.67h1.51v.8h-1.51v3.13c0,.72.2,1.13.79,1.13a2.08,2.08,0,0,0,.61-.08l.05.8a2.69,2.69,0,0,1-.94.14,1.5,1.5,0,0,1-1.14-.44,2.23,2.23,0,0,1-.4-1.52V292.4h-.9v-.8h.9v-1.4Z"/><path class="cls-2" d="M186.17,295.82c0,.6,0,1.12,0,1.58h-.93l-.06-.95h0a2.16,2.16,0,0,1-1.91,1.08c-.92,0-2-.5-2-2.54V291.6h1.06v3.21c0,1.1.33,1.85,1.29,1.85a1.47,1.47,0,0,0,1.49-1.5V291.6h1.06Z"/><path class="cls-2" d="M191.14,297.4l-.09-.73h0a2.19,2.19,0,0,1-1.78.86,1.65,1.65,0,0,1-1.77-1.66c0-1.41,1.24-2.18,3.49-2.16v-.12a1.21,1.21,0,0,0-1.32-1.35,2.9,2.9,0,0,0-1.51.43l-.24-.69a3.6,3.6,0,0,1,1.9-.52c1.78,0,2.21,1.21,2.21,2.38V296a7.44,7.44,0,0,0,.1,1.39Zm-.16-3c-1.15,0-2.46.18-2.46,1.3a.94.94,0,0,0,1,1,1.45,1.45,0,0,0,1.4-1,1,1,0,0,0,.06-.33Z"/><path class="cls-2" d="M193.71,288.88h1v8.52h-1Z"/><path class="cls-2" d="M195.9,298.85a8.14,8.14,0,0,0,1.51-4.9,7.89,7.89,0,0,0-1.51-4.87h.82a7.68,7.68,0,0,1,1.57,4.88,7.82,7.82,0,0,1-1.57,4.89Z"/><path class="cls-2" d="M163.53,309,158,311.8V311l4.73-2.35v0L158,306.25v-.83l5.57,2.85Z"/><path class="cls-2" d="M169.7,305h0l-1.35.73-.2-.8,1.7-.92h.9v7.8h-1Z"/><path class="cls-2" d="M178,304.75a3.83,3.83,0,0,0-.79.05,3.16,3.16,0,0,0-2.71,2.77h0a2.37,2.37,0,0,1,4.23,1.62,2.6,2.6,0,0,1-2.59,2.74c-1.67,0-2.76-1.29-2.76-3.32a4.86,4.86,0,0,1,1.32-3.51,4.23,4.23,0,0,1,2.5-1.16,6.28,6.28,0,0,1,.76-.06Zm-.3,4.5a1.58,1.58,0,0,0-1.6-1.79,1.71,1.71,0,0,0-1.51,1,.81.81,0,0,0-.12.46c0,1.29.61,2.24,1.71,2.24C177.1,311.12,177.71,310.36,177.71,309.25Z"/><path class="cls-2" d="M189.45,308.25c-.06-1.13-.13-2.48-.12-3.49h0c-.27.95-.61,1.95-1,3.07l-1.43,3.92h-.79l-1.3-3.85c-.39-1.14-.71-2.18-.94-3.14h0c0,1-.09,2.36-.16,3.57l-.22,3.47h-1l.56-8.08h1.33l1.38,3.91c.34,1,.62,1.88.82,2.72h0c.21-.82.5-1.7.86-2.72l1.44-3.91h1.33l.5,8.08h-1Z"/><path class="cls-2" d="M193.57,304.36a.66.66,0,0,1-1.31,0,.65.65,0,0,1,.66-.66A.63.63,0,0,1,193.57,304.36Zm-1.18,7.44V306h1.06v5.8Z"/><path class="cls-2" d="M195.23,303.82a10.82,10.82,0,0,1,1.91-.16,3.37,3.37,0,0,1,2.22.58,1.72,1.72,0,0,1,.67,1.43,1.93,1.93,0,0,1-1.36,1.78v0a2.09,2.09,0,0,1,1.66,2,2.19,2.19,0,0,1-.68,1.62,4.12,4.12,0,0,1-2.8.75,14.11,14.11,0,0,1-1.62-.09Zm1.05,3.31h.95c1.1,0,1.75-.57,1.75-1.35,0-.95-.72-1.32-1.78-1.32a5,5,0,0,0-.92.07Zm0,3.88a6.25,6.25,0,0,0,.87.05c1.08,0,2.08-.4,2.08-1.58s-.95-1.55-2.09-1.55h-.86Z"/><rect class="cls-6" x="245.5" y="261.5" width="101" height="63"/><path class="cls-2" d="M284.73,281.45v3.38h3.91v-3.38h1.06v8.08h-1.06v-3.79h-3.91v3.79h-1v-8.08Z"/><path class="cls-2" d="M292.06,286.82a1.87,1.87,0,0,0,2,2,3.76,3.76,0,0,0,1.61-.3l.18.75a4.67,4.67,0,0,1-1.93.36,2.69,2.69,0,0,1-2.85-2.92c0-1.75,1-3.13,2.72-3.13a2.46,2.46,0,0,1,2.4,2.73,4,4,0,0,1,0,.49Zm3.1-.75a1.51,1.51,0,0,0-1.47-1.72,1.75,1.75,0,0,0-1.61,1.72Z"/><path class="cls-2" d="M300.7,289.53l-.08-.73h0a2.15,2.15,0,0,1-1.77.87A1.66,1.66,0,0,1,297,288c0-1.4,1.25-2.17,3.49-2.16v-.12a1.19,1.19,0,0,0-1.32-1.34,2.84,2.84,0,0,0-1.51.43l-.24-.7a3.63,3.63,0,0,1,1.91-.51c1.77,0,2.21,1.21,2.21,2.37v2.17a8.32,8.32,0,0,0,.09,1.39Zm-.15-3c-1.16,0-2.46.18-2.46,1.31a.93.93,0,0,0,1,1,1.45,1.45,0,0,0,1.41-1,1.35,1.35,0,0,0,.06-.34Z"/><path class="cls-2" d="M303.27,285.62c0-.74,0-1.34,0-1.89h.95l.05,1h0a2.3,2.3,0,0,1,2.07-1.12c1.4,0,2.45,1.19,2.45,2.95,0,2.08-1.27,3.12-2.63,3.12a2,2,0,0,1-1.79-.92h0v3.16h-1Zm1,1.55a2.68,2.68,0,0,0,.05.43,1.64,1.64,0,0,0,1.59,1.24c1.11,0,1.76-.91,1.76-2.24,0-1.17-.61-2.16-1.73-2.16a1.67,1.67,0,0,0-1.59,1.3,1.63,1.63,0,0,0-.08.44Z"/><path class="cls-2" d="M275.46,301.08l-5.57,2.85v-.82l4.73-2.35v0l-4.73-2.35v-.83l5.57,2.86Z"/><path class="cls-2" d="M276.73,299.89v-.72h6.19v.72Zm0,2.35v-.72h6.19v.72Z"/><path class="cls-2" d="M291.14,297h-3l-.3,2a3.48,3.48,0,0,1,.63,0,3.28,3.28,0,0,1,1.68.42,2.21,2.21,0,0,1,1.12,2,2.7,2.7,0,0,1-2.9,2.67,3.87,3.87,0,0,1-1.95-.48l.27-.81a3.5,3.5,0,0,0,1.66.43,1.72,1.72,0,0,0,1.85-1.69c0-1-.68-1.72-2.24-1.72a7.6,7.6,0,0,0-1.08.08l.5-3.74h3.73Z"/><path class="cls-2" d="M294.94,297.12h0l-1.35.73-.21-.8,1.71-.91h.9v7.79h-1Z"/><path class="cls-2" d="M298.8,303.93v-.64l.83-.81c2-1.89,2.89-2.9,2.9-4.07a1.39,1.39,0,0,0-1.55-1.53,2.66,2.66,0,0,0-1.65.66l-.34-.74a3.41,3.41,0,0,1,2.21-.79,2.19,2.19,0,0,1,2.39,2.26c0,1.44-1,2.61-2.69,4.19l-.62.58v0h3.5v.87Z"/><path class="cls-2" d="M307.87,295.85h1.05v3.9h0c.22-.31.43-.6.64-.87l2.47-3h1.29l-2.92,3.43,3.15,4.65h-1.23l-2.67-4-.76.89v3.08h-1.05Z"/><path class="cls-2" d="M315.64,296.5a.63.63,0,0,1-.68.65.63.63,0,0,1-.63-.65.65.65,0,0,1,.66-.66A.63.63,0,0,1,315.64,296.5Zm-1.18,7.43v-5.8h1.06v5.8Z"/><path class="cls-2" d="M317.3,296a9.84,9.84,0,0,1,1.91-.17,3.31,3.31,0,0,1,2.22.59,1.69,1.69,0,0,1,.67,1.43,1.92,1.92,0,0,1-1.36,1.77v0a2.1,2.1,0,0,1,1.66,2,2.17,2.17,0,0,1-.68,1.62,4.06,4.06,0,0,1-2.8.76,11.87,11.87,0,0,1-1.62-.1Zm1.05,3.31h.95c1.1,0,1.75-.58,1.75-1.36,0-.94-.72-1.32-1.78-1.32a4,4,0,0,0-.92.08Zm0,3.87a5,5,0,0,0,.87.05c1.08,0,2.08-.4,2.08-1.57s-.95-1.56-2.09-1.56h-.86Z"/><polyline class="cls-1" points="479.5 342.5 378.5 342.5 378.5 279.5 479.5 279.5 479.5 342.5"/><polyline class="cls-2" points="479.5 342.5 479.5 342 379 342 379 280 479 280 479 342.5 479.5 342.5 479.5 342 479.5 342.5 480 342.5 480 279 378 279 378 343 480 343 480 342.5 479.5 342.5"/><polyline class="cls-1" points="470.5 333.5 369.5 333.5 369.5 270.5 470.5 270.5 470.5 333.5"/><polyline class="cls-2" points="470.5 333.5 470.5 333 370 333 370 271 470 271 470 333.5 470.5 333.5 470.5 333 470.5 333.5 471 333.5 471 270 369 270 369 334 471 334 471 333.5 470.5 333.5"/><polyline class="cls-3" points="479 280 471 280 471 333.5 471 334 379 334 379 342 479 342 479 280"/><path class="cls-4" d="M479.5,342.5h0v0h0M480,279h-9v1h8v62H379v-8h-1v9H480V279"/><polyline class="cls-3" points="470 271 370 271 370 333 470 333 470 271"/><path class="cls-4" d="M470.5,333.5h0v0h0M370,333V271H470v62H370m101-63H369v64H471V270"/><rect class="cls-5" x="361.5" y="261.5" width="101" height="63"/><polygon class="cls-2" points="462.5 324.5 462.5 324 362 324 362 262 462 262 462 324.5 462.5 324.5 462.5 324 462.5 324.5 463 324.5 463 261 361 261 361 325 463 325 463 324.5 462.5 324.5"/><path class="cls-2" d="M399.43,290l-.84,2.54h-1.07l2.74-8.08h1.26l2.76,8.08h-1.12L402.3,290Zm2.65-.81-.79-2.33c-.18-.53-.3-1-.42-1.48h0c-.12.48-.25,1-.41,1.47l-.79,2.34Z"/><path class="cls-2" d="M405.41,288.58c0-.68,0-1.27-.05-1.81h.93l0,1.14h.05a1.74,1.74,0,0,1,1.61-1.27,1.39,1.39,0,0,1,.3,0v1a1.32,1.32,0,0,0-.36,0A1.49,1.49,0,0,0,406.5,289a3.47,3.47,0,0,0,0,.49v3.09h-1Z"/><path class="cls-2" d="M409.81,289.86a1.87,1.87,0,0,0,2,2,3.75,3.75,0,0,0,1.6-.3l.18.75a4.67,4.67,0,0,1-1.93.36,2.69,2.69,0,0,1-2.85-2.92c0-1.75,1-3.13,2.72-3.13a2.46,2.46,0,0,1,2.4,2.73,4,4,0,0,1,0,.49Zm3.1-.75a1.51,1.51,0,0,0-1.46-1.72,1.75,1.75,0,0,0-1.62,1.72Z"/><path class="cls-2" d="M415.24,288.34c0-.6,0-1.09-.05-1.57h.94l.06,1h0a2.14,2.14,0,0,1,1.92-1.09c.8,0,2.05.48,2.05,2.47v3.46h-1.06v-3.34c0-.94-.34-1.72-1.34-1.72a1.5,1.5,0,0,0-1.41,1.08,1.44,1.44,0,0,0-.08.49v3.49h-1.05Z"/><path class="cls-2" d="M425.11,292.57l-.08-.73h0a2.14,2.14,0,0,1-1.77.87,1.66,1.66,0,0,1-1.78-1.67c0-1.4,1.25-2.17,3.49-2.16v-.12a1.19,1.19,0,0,0-1.32-1.34,2.84,2.84,0,0,0-1.51.43l-.24-.7a3.63,3.63,0,0,1,1.91-.51c1.77,0,2.21,1.21,2.21,2.37v2.17a8.32,8.32,0,0,0,.09,1.39Zm-.15-3c-1.15,0-2.46.18-2.46,1.31a.93.93,0,0,0,1,1,1.45,1.45,0,0,0,1.41-1,1.35,1.35,0,0,0,.06-.34Z"/><path class="cls-2" d="M389.47,303.46l5.57-2.87v.83l-4.69,2.35v0l4.69,2.35V307l-5.57-2.86Z"/><path class="cls-2" d="M403.57,300.07h-3l-.3,2a4.75,4.75,0,0,1,.64-.05,3.28,3.28,0,0,1,1.68.42,2.22,2.22,0,0,1,1.11,2,2.7,2.7,0,0,1-2.9,2.67,3.8,3.8,0,0,1-1.94-.48l.26-.81a3.42,3.42,0,0,0,1.67.44,1.73,1.73,0,0,0,1.85-1.7c0-1-.69-1.72-2.25-1.72a9.44,9.44,0,0,0-1.08.08l.51-3.74h3.73Z"/><path class="cls-2" d="M407.36,300.16h0l-1.36.73-.2-.8,1.7-.91h.9V307h-1Z"/><path class="cls-2" d="M411.23,307v-.64l.82-.81c2-1.89,2.89-2.9,2.91-4.07a1.4,1.4,0,0,0-1.55-1.53,2.66,2.66,0,0,0-1.66.66l-.33-.74a3.4,3.4,0,0,1,2.2-.79,2.19,2.19,0,0,1,2.39,2.26c0,1.44-1,2.61-2.68,4.19l-.63.58v0h3.5V307Z"/><path class="cls-2" d="M420.3,298.89h1v3.9h0c.21-.31.43-.6.63-.86l2.47-3h1.3l-2.93,3.43L426,307h-1.24l-2.66-4-.77.89V307h-1Z"/><path class="cls-2" d="M428.06,299.54a.62.62,0,0,1-.67.65.63.63,0,0,1-.64-.65.65.65,0,0,1,.66-.66A.63.63,0,0,1,428.06,299.54ZM426.89,307v-5.8h1.05V307Z"/><path class="cls-2" d="M429.73,299a9.69,9.69,0,0,1,1.91-.17,3.3,3.3,0,0,1,2.21.59,1.7,1.7,0,0,1,.68,1.43,1.92,1.92,0,0,1-1.37,1.77v0a2.07,2.07,0,0,1,1.67,2,2.16,2.16,0,0,1-.69,1.62,4,4,0,0,1-2.79.76,11.75,11.75,0,0,1-1.62-.1Zm1,3.31h1c1.1,0,1.75-.58,1.75-1.36,0-.94-.72-1.32-1.77-1.32a4.12,4.12,0,0,0-.93.08Zm0,3.87a5.2,5.2,0,0,0,.88.05c1.08,0,2.07-.39,2.07-1.57s-.94-1.56-2.08-1.56h-.87Z"/><line class="cls-7" x1="295.5" y1="116.5" x2="295.5" y2="141.32"/><polygon class="cls-2" points="290.51 139.87 295.5 148.5 300.49 139.87 290.51 139.87"/><line class="cls-7" x1="283.5" y1="116.5" x2="283.5" y2="141.32"/><polygon class="cls-2" points="278.51 139.87 283.5 148.5 288.49 139.87 278.51 139.87"/><line class="cls-7" x1="307.5" y1="116.5" x2="307.5" y2="141.32"/><polygon class="cls-2" points="302.51 139.87 307.5 148.5 312.49 139.87 302.51 139.87"/><line class="cls-7" x1="283.5" y1="116.5" x2="283.5" y2="141.32"/><polygon class="cls-2" points="278.51 139.87 283.5 148.5 288.49 139.87 278.51 139.87"/><line class="cls-8" x1="330.5" y1="211.5" x2="412.5" y2="261.5"/><line class="cls-7" x1="330.5" y1="211.5" x2="406.37" y2="257.76"/><polygon class="cls-2" points="402.53 261.26 412.5 261.5 407.72 252.75 402.53 261.26"/><line class="cls-8" x1="318.5" y1="211.5" x2="400.5" y2="261.5"/><line class="cls-7" x1="318.5" y1="211.5" x2="394.37" y2="257.76"/><polygon class="cls-2" points="390.53 261.26 400.5 261.5 395.72 252.75 390.53 261.26"/><line class="cls-8" x1="342.5" y1="211.5" x2="424.5" y2="261.5"/><line class="cls-7" x1="342.5" y1="211.5" x2="418.37" y2="257.76"/><polygon class="cls-2" points="414.53 261.26 424.5 261.5 419.72 252.75 414.53 261.26"/><line class="cls-8" x1="318.5" y1="211.5" x2="400.5" y2="261.5"/><line class="cls-7" x1="318.5" y1="211.5" x2="394.37" y2="257.76"/><polygon class="cls-2" points="390.53 261.26 400.5 261.5 395.72 252.75 390.53 261.26"/><line class="cls-7" x1="295.5" y1="211.5" x2="295.5" y2="254.32"/><polygon class="cls-2" points="290.51 252.87 295.5 261.5 300.49 252.87 290.51 252.87"/><line class="cls-8" x1="249.5" y1="211.5" x2="179" y2="261.5"/><line class="cls-7" x1="249.5" y1="211.5" x2="184.85" y2="257.35"/><polygon class="cls-2" points="183.16 252.44 179 261.5 188.93 260.57 183.16 252.44"/></svg>